<svg xmlns="http://www.w3.org/2000/svg" viewBox="0 0 162.69 142.51"><defs><style>.cls-1{fill:#7f7fff;stroke-miterlimit:10;}.cls-1,.cls-2{stroke:#7f7fff;}.cls-2,.cls-4{fill:none;}.cls-2,.cls-3,.cls-4{stroke-linecap:round;stroke-linejoin:round;stroke-width:10px;}.cls-3{fill:#fff;}.cls-3,.cls-4{stroke:#fff;}</style></defs><g id="レイヤー_2" data-name="レイヤー 2"><g id="レイヤー_1-2" data-name="レイヤー 1"><path class="cls-1" d="M135.27,42.65a9.75,9.75,0,0,0,.27-6L127.85,7.92a10,10,0,0,0-16.73-4.48L96.39,18.16a86.17,86.17,0,0,0-43.88,0L37.78,3.44A10,10,0,0,0,21.05,7.92L13.36,36.65a9.75,9.75,0,0,0,.27,6A57,57,0,0,0,.5,78.67c0,35,33.11,63.34,74,63.34s74-28.36,74-63.34A57,57,0,0,0,135.27,42.65Z"/><path class="cls-2" d="M105,120.29c13.18,0,13.18,6,26.37,6s13.18-6,26.37-6"/><line class="cls-3" x1="49.32" y1="57.05" x2="49.32" y2="85.64"/><line class="cls-4" x1="99.58" y1="57.05" x2="99.58" y2="85.64"/></g></g></svg>