<?xml version="1.0" standalone="no"?>
<!DOCTYPE svg PUBLIC "-//W3C//DTD SVG 20010904//EN"
 "http://www.w3.org/TR/2001/REC-SVG-20010904/DTD/svg10.dtd">
<svg version="1.0" xmlns="http://www.w3.org/2000/svg"
 width="500.000000pt" height="500.000000pt" viewBox="0 0 500.000000 500.000000"
 preserveAspectRatio="xMidYMid meet">
<metadata>
Created by potrace 1.14, written by Peter Selinger 2001-2017
</metadata>
<g transform="translate(0.000000,500.000000) scale(0.100000,-0.100000)"
fill="#000000" stroke="none">
<path d="M2300 4844 c-154 -13 -315 -54 -527 -135 -118 -45 -150 -61 -203
-100 -19 -15 -77 -55 -129 -89 -221 -146 -497 -478 -669 -805 -187 -353 -212
-404 -237 -485 -65 -207 -84 -281 -93 -370 -11 -102 -3 -139 48 -210 11 -16
17 -31 13 -33 -11 -7 -144 19 -231 45 -95 28 -155 80 -201 175 -19 37 -36 63
-38 56 -8 -22 60 -138 105 -181 52 -48 135 -79 292 -107 52 -10 102 -24 110
-31 12 -12 16 -67 21 -292 10 -400 28 -715 45 -809 13 -76 70 -259 107 -345
39 -93 144 -226 204 -261 27 -16 26 3 -2 25 -84 66 -194 330 -235 562 -23 136
-8 129 30 -14 63 -239 115 -344 222 -450 30 -30 80 -66 115 -82 35 -17 63 -31
63 -31 0 -1 -9 -26 -20 -56 -31 -81 -50 -184 -50 -272 0 -120 17 -95 22 34 4
80 12 135 30 195 14 45 28 85 32 89 3 3 17 0 31 -7 29 -16 43 -7 25 15 -11 13
-8 15 22 15 38 0 98 18 98 29 0 4 -8 7 -17 7 -10 0 -31 3 -48 7 -28 7 -29 6
-11 -8 19 -14 17 -15 -22 -15 -23 0 -42 5 -42 10 0 6 6 10 13 10 9 0 9 2 -1 9
-19 11 3 52 61 117 l44 48 75 -38 c84 -42 168 -59 168 -33 0 14 28 32 37 23 7
-7 -16 -118 -27 -131 -6 -7 -28 -15 -49 -18 -55 -7 -106 -34 -120 -63 -17 -39
-13 -42 10 -7 22 34 81 63 132 63 38 0 51 8 55 35 1 11 7 45 13 75 6 30 12
151 13 268 2 117 6 215 10 219 3 3 30 8 59 10 60 5 99 -14 141 -70 66 -87 73
-331 13 -468 l-22 -52 -95 0 -95 1 105 -8 c80 -6 135 -17 230 -48 69 -22 136
-43 150 -47 14 -4 69 -30 124 -58 129 -67 245 -167 274 -235 25 -57 27 -73 11
-89 -7 -7 -4 -23 9 -54 61 -138 73 -173 86 -263 9 -54 18 -101 21 -104 17 -17
-23 207 -44 248 -31 61 -54 142 -55 197 -1 44 1 53 16 53 14 0 70 -40 98 -70
28 -30 99 -70 125 -70 36 0 86 38 118 91 12 20 42 66 67 103 l45 68 3 -203 c1
-112 -2 -242 -7 -289 -9 -79 -8 -100 4 -89 14 15 27 308 22 502 -4 142 -3 226
4 238 7 13 6 19 -1 19 -18 0 -32 -52 -27 -98 5 -46 -10 -77 -91 -187 -16 -22
-35 -51 -42 -65 -27 -52 -78 -84 -111 -71 -28 10 -109 70 -156 114 l-32 30 25
38 c30 48 45 114 37 163 -10 61 -18 48 -15 -24 3 -47 -1 -77 -12 -98 -18 -34
-65 -92 -75 -92 -3 0 -15 16 -26 36 -15 28 -70 81 -124 121 -8 6 102 113 137
135 18 11 39 17 47 14 8 -3 15 -1 15 4 0 6 -10 10 -22 10 -25 0 -80 -42 -145
-109 -36 -37 -45 -42 -58 -31 -13 11 -13 14 3 29 27 24 81 105 103 156 11 25
22 45 24 45 2 0 17 -13 33 -30 17 -16 36 -30 44 -30 7 0 -6 18 -30 41 -30 28
-42 47 -40 62 3 20 8 22 68 19 95 -4 160 30 275 147 49 50 95 91 102 91 18 0
16 -7 -11 -43 -67 -89 -108 -209 -136 -397 -12 -76 -37 -150 -50 -150 -5 0
-10 10 -14 23 -3 13 -24 52 -47 87 -49 77 -47 75 -55 68 -3 -4 10 -29 29 -57
54 -78 73 -135 59 -175 -15 -40 -16 -136 -2 -136 6 0 10 25 10 56 0 47 7 69
38 128 30 54 42 91 51 156 18 127 30 178 58 250 25 66 79 160 92 160 4 0 18
-11 30 -24 25 -27 140 -100 146 -94 2 2 -26 24 -63 48 -48 32 -79 63 -109 108
-63 93 -68 161 -20 233 35 52 65 50 112 -8 41 -51 148 -148 180 -165 20 -9 2
8 -84 83 -43 38 -43 39 -27 64 9 14 22 25 29 25 10 0 112 -68 146 -96 2 -2
-24 -59 -59 -126 -108 -208 -119 -232 -125 -263 -3 -16 9 4 27 45 18 42 49
105 69 140 20 36 50 93 67 126 35 69 63 100 176 194 223 186 427 297 426 233
0 -13 -37 -38 -118 -81 -64 -34 -147 -84 -183 -112 -71 -53 -259 -227 -259
-239 0 -4 28 20 63 53 154 152 242 218 392 295 167 87 299 93 461 24 170 -73
243 -140 314 -288 26 -55 56 -122 66 -150 21 -60 23 -63 33 -47 12 20 -61 213
-108 286 -45 68 -105 129 -158 161 -18 10 -57 49 -88 87 -36 43 -86 88 -142
125 -48 33 -88 63 -90 69 -2 5 15 40 37 76 47 79 102 280 126 466 4 29 9 50
12 48 3 -3 13 -43 24 -88 l18 -83 -5 90 c-3 58 0 120 10 175 39 223 3 398
-137 665 -76 144 -353 518 -380 512 -6 -1 -13 4 -16 12 -3 9 0 11 9 6 8 -5 2
5 -12 21 -14 16 -67 76 -116 134 -162 188 -360 371 -534 495 -186 133 -266
197 -194 155 22 -12 91 -40 153 -61 62 -22 132 -49 155 -60 109 -55 256 -146
295 -181 23 -21 75 -54 115 -72 44 -20 103 -59 147 -98 41 -35 98 -81 125
-102 60 -45 221 -201 296 -286 75 -85 133 -171 180 -265 l41 -80 -64 65 c-70
73 -226 200 -244 200 -6 0 -17 -7 -24 -15 -11 -13 -8 -21 17 -48 17 -18 45
-54 63 -82 19 -27 37 -51 42 -53 4 -2 8 -10 8 -17 0 -7 3 -15 8 -17 19 -8 100
-172 127 -258 12 -36 19 -100 23 -186 4 -112 1 -143 -18 -220 -12 -49 -26 -93
-30 -99 -12 -17 -19 -55 -9 -60 27 -17 79 181 86 325 4 84 1 122 -15 191 -23
95 -79 224 -135 312 -20 31 -33 57 -29 57 17 0 170 -167 208 -225 59 -92 114
-241 114 -310 0 -19 5 -35 11 -35 13 0 4 96 -13 139 -5 14 -16 57 -24 96 -14
68 -57 203 -75 238 -8 14 -5 17 16 17 l25 0 0 111 0 112 38 -8 c81 -16 87 -14
92 30 5 36 8 40 45 51 22 6 40 16 40 21 0 6 -15 28 -33 48 -26 28 -32 42 -28
61 5 17 2 26 -10 31 -9 3 -19 1 -23 -5 -3 -6 -29 10 -61 39 -30 28 -46 45 -35
40 81 -41 106 -51 99 -39 -17 29 -144 196 -182 238 l-39 45 -249 3 c-137 2
-275 -1 -306 -6 -54 -8 -88 -2 -88 18 0 29 380 68 508 53 39 -5 72 -6 72 -2 0
4 -39 43 -87 88 -88 80 -88 81 -133 76 -57 -7 -145 -29 -239 -60 l-73 -24 38
35 c39 34 91 63 174 95 24 9 45 21 47 25 1 5 -19 24 -44 43 l-46 34 -55 -29
c-55 -29 -155 -118 -184 -164 -16 -25 -16 -24 -7 15 10 45 12 278 3 313 -14
51 -19 13 -19 -147 0 -93 -3 -172 -7 -176 -4 -4 -26 9 -50 29 -275 230 -507
342 -868 421 -113 25 -324 39 -440 29z m539 -118 c188 -56 307 -104 426 -170
38 -21 90 -49 114 -62 55 -29 172 -124 235 -191 65 -70 47 -67 -33 5 -120 107
-216 172 -361 244 -172 85 -149 75 -330 134 -173 56 -266 68 -464 59 -141 -7
-165 -12 -476 -95 -63 -17 -131 -42 -151 -55 -20 -13 -72 -43 -115 -66 -44
-24 -104 -62 -134 -84 -30 -23 -82 -61 -115 -86 -98 -73 -313 -288 -368 -369
-169 -246 -267 -426 -342 -625 -13 -33 -41 -98 -63 -145 -85 -183 -118 -273
-147 -395 -26 -110 -26 -110 -36 -94 -15 24 -10 54 35 211 68 235 85 286 120
357 17 36 38 86 46 111 7 25 18 51 23 58 6 7 27 45 47 85 48 95 134 234 201
327 30 41 77 106 104 145 28 38 73 94 100 125 28 30 63 72 79 93 16 21 56 59
87 83 32 24 64 50 71 58 17 16 174 121 253 168 87 52 190 91 371 139 291 77
299 78 509 75 187 -2 192 -3 314 -40z m8 -169 c43 -29 98 -65 123 -79 76 -45
232 -168 345 -273 191 -177 376 -397 476 -566 46 -77 48 -101 4 -42 -50 67
-99 113 -122 113 -13 0 -23 -5 -23 -10 0 -6 33 -55 73 -108 86 -114 144 -199
179 -262 37 -69 82 -179 75 -187 -4 -3 -10 3 -14 13 -15 42 -66 114 -79 114
-22 0 -17 -15 23 -77 61 -95 138 -241 163 -308 73 -191 74 -198 60 -335 -21
-215 -42 -298 -72 -288 -6 2 -23 40 -38 83 -32 91 -128 304 -187 415 -55 102
-198 336 -218 356 -9 9 -46 62 -82 118 -37 55 -112 157 -168 226 -55 69 -105
132 -112 140 -145 183 -237 295 -277 338 -48 50 -52 53 -88 47 -40 -7 -51 8
-26 33 10 10 6 19 -22 45 -76 69 -177 154 -210 178 -19 13 -59 45 -88 71 -51
46 -217 166 -279 203 -18 11 -33 23 -33 27 0 12 32 26 106 47 57 16 102 20
251 20 l182 1 78 -53z m-836 -123 c13 -15 56 -52 94 -82 39 -31 116 -102 173
-158 l102 -102 -87 -50 c-49 -28 -106 -55 -128 -61 -40 -11 -40 -11 -83 36
-61 70 -138 183 -158 234 -10 24 -23 53 -30 63 -12 18 -14 18 -20 2 -4 -10 -2
-54 5 -99 14 -102 15 -383 1 -392 -6 -4 -10 -69 -10 -163 0 -147 -2 -167 -36
-302 -42 -173 -47 -182 -82 -178 l-27 3 -1 120 c-1 66 -2 127 -4 135 -5 30
-19 -77 -19 -155 -1 -44 -5 -86 -10 -94 -5 -8 -11 50 -13 150 -4 124 -11 198
-32 304 -32 163 -46 215 -58 215 -14 0 -8 -40 29 -187 3 -13 1 -23 -5 -23 -19
0 -31 -69 -43 -230 -18 -266 -22 -287 -65 -331 -21 -22 -42 -39 -47 -39 -8 0
-2 200 8 281 4 26 -1 42 -14 58 -11 12 -22 18 -25 13 -3 -4 -10 -57 -16 -116
-6 -58 -14 -117 -19 -129 -5 -12 -12 -58 -16 -101 -8 -90 -12 -88 -51 27 -19
58 -23 82 -15 90 17 17 13 37 -8 37 -20 0 -36 53 -61 194 -11 64 -12 393 -1
438 16 71 362 410 507 498 38 23 78 50 89 60 26 24 104 59 131 60 11 0 31 -12
45 -26z m378 -127 c26 -13 80 -46 121 -73 68 -44 71 -49 49 -55 -14 -3 -43
-17 -65 -29 l-39 -23 -98 98 c-53 55 -97 103 -97 108 0 16 80 0 129 -26z m278
-143 c2 -6 -19 -21 -47 -34 -28 -13 -53 -28 -56 -32 -3 -4 25 6 61 22 77 34
75 34 75 18 0 -18 -59 -63 -165 -129 -49 -31 -138 -86 -198 -123 -59 -37 -123
-70 -141 -73 -31 -5 -36 -2 -61 35 l-27 41 27 35 c18 24 36 36 52 36 14 0 50
15 81 34 137 81 290 160 332 172 49 13 62 13 67 -2z m-665 -81 c55 -60 118
-152 108 -158 -16 -10 -11 -55 10 -90 25 -40 61 -57 109 -49 36 6 39 4 114
-77 42 -45 77 -85 77 -88 0 -3 -15 -14 -33 -25 -18 -10 -27 -21 -20 -23 7 -3
23 3 35 11 33 24 50 20 89 -20 18 -20 54 -50 79 -68 60 -41 168 -129 169 -137
1 -8 -61 -35 -71 -32 -19 6 -108 -112 -137 -182 -29 -69 -31 -83 -28 -163 2
-64 5 -81 12 -63 4 13 29 68 55 121 70 142 124 180 282 200 90 11 101 11 163
-9 73 -24 155 -67 195 -103 41 -37 59 -73 66 -133 4 -30 10 -58 14 -60 10 -6
50 87 50 115 0 22 47 73 60 65 4 -2 12 -30 18 -62 26 -142 36 -262 36 -453 1
-187 -1 -210 -21 -257 -12 -29 -18 -53 -13 -53 4 0 11 8 15 18 26 66 70 197
85 256 l18 71 8 -50 c4 -27 8 -124 9 -215 l0 -165 -32 -67 c-27 -57 -36 -67
-65 -73 -43 -9 -84 -48 -115 -110 -22 -43 -25 -58 -21 -122 4 -62 2 -75 -14
-89 -22 -21 -24 -18 -63 54 -31 58 -47 69 -91 58 -52 -13 -124 -117 -124 -178
0 -18 12 -60 25 -93 l25 -60 -25 -24 -25 -25 -20 22 c-57 61 -139 -15 -140
-130 0 -30 -6 -42 -32 -62 -46 -34 -140 -80 -220 -106 -94 -31 -150 -25 -192
23 -29 33 -64 57 -83 57 -5 0 -19 -9 -31 -21 -16 -14 -23 -16 -26 -7 -38 123
-62 157 -131 189 -51 23 -67 23 -96 1 -17 -14 -24 -34 -30 -81 -4 -34 -9 -65
-12 -67 -8 -8 -144 35 -154 49 -5 6 -17 33 -27 59 -23 61 -77 105 -149 120
-47 10 -58 9 -80 -5 -25 -16 -28 -16 -84 14 -77 41 -134 103 -177 194 -34 72
-75 121 -232 280 -38 39 -56 68 -73 115 -28 85 -27 103 3 67 16 -18 22 -35 18
-49 -4 -17 -2 -20 11 -15 8 3 25 -3 38 -14 30 -25 33 -24 26 11 -5 23 -2 32
13 40 16 9 22 6 35 -20 21 -40 27 -38 19 5 l-6 35 51 0 c28 0 51 2 51 5 0 3
-6 16 -14 28 -26 42 -38 124 -34 239 4 92 9 122 28 162 32 66 96 134 112 118
9 -9 5 -19 -18 -41 -100 -98 -78 -373 44 -551 52 -75 106 -103 185 -97 84 7
188 72 223 139 28 54 8 53 -26 -2 -31 -51 -82 -85 -159 -105 -72 -18 -113 -11
-166 29 -39 30 -95 123 -95 157 0 30 35 80 77 109 33 22 34 23 48 4 8 -10 15
-23 15 -29 0 -5 17 -26 37 -47 46 -47 84 -50 125 -11 32 31 37 79 13 135 -13
33 -13 37 8 56 23 21 42 27 84 24 24 -2 53 -46 53 -82 0 -11 4 -20 9 -20 16 0
-14 105 -47 161 -67 118 -181 194 -287 193 -33 0 -71 -4 -84 -9 -17 -6 -22 -5
-17 3 19 32 218 57 229 30 4 -10 8 -10 15 1 10 14 36 8 114 -27 5 -2 8 1 8 6
0 6 -20 23 -45 39 -49 31 -52 35 -31 55 50 50 134 280 177 482 34 160 41 138
48 -156 l6 -243 8 155 c5 85 8 169 8 185 -3 621 -2 815 3 824 11 17 20 13 48
-16z m843 -146 c229 -235 283 -294 323 -354 61 -90 62 -89 -53 -61 -67 16
-168 59 -205 86 -55 41 -340 326 -340 339 0 7 15 20 33 29 17 9 48 30 67 45
19 16 41 29 50 29 8 0 64 -51 125 -113z m1422 -38 c43 -42 103 -104 134 -139
l57 -64 -21 -27 -20 -28 -36 29 c-70 56 -194 181 -319 322 l-24 26 76 -22 c69
-20 82 -28 153 -97z m-1696 -61 c30 -35 105 -115 167 -178 61 -63 112 -115
112 -117 0 -9 -138 -1 -167 9 -37 14 -44 28 -12 28 32 0 19 34 -16 41 -17 4
-59 7 -94 8 l-64 1 -53 56 c-91 97 -89 94 -66 110 11 7 44 34 73 58 30 25 57
45 60 45 3 1 30 -27 60 -61z m1183 -94 c3 -8 2 -12 -4 -9 -6 3 -10 10 -10 16
0 14 7 11 14 -7z m62 -89 c25 -36 44 -69 40 -72 -3 -4 -8 -4 -10 -2 -10 11
-84 139 -81 139 2 0 25 -29 51 -65z m-2733 -357 c-3 -205 -8 -339 -15 -352 -8
-15 -7 -22 6 -31 13 -10 16 -31 16 -101 0 -49 7 -150 16 -224 9 -74 18 -155
21 -180 l5 -45 -42 43 c-23 23 -52 66 -65 95 l-24 52 6 -46 c6 -50 -9 -72 -32
-48 -30 31 -78 231 -91 375 -16 185 -24 98 -20 -236 5 -435 18 -535 96 -725
21 -49 43 -108 50 -130 17 -54 94 -208 131 -262 17 -24 74 -88 127 -142 100
-100 171 -146 244 -158 80 -12 51 -113 -32 -113 -10 0 -21 -4 -24 -9 -6 -9
-46 -3 -56 8 -3 3 -30 19 -60 35 -78 42 -147 94 -211 162 -138 146 -263 393
-295 583 -8 47 -21 106 -29 131 -8 25 -26 105 -39 179 -14 74 -29 138 -35 144
-41 41 4 -619 61 -882 44 -205 121 -365 207 -426 23 -16 56 -43 74 -58 l32
-29 -54 29 c-30 15 -81 54 -112 86 -95 95 -140 190 -208 432 -41 149 -57 236
-67 378 -7 86 -18 115 -31 80 -4 -9 -1 -112 5 -228 14 -245 30 -330 106 -550
4 -11 0 -8 -8 6 -24 41 -83 225 -101 314 -32 156 -62 995 -36 995 5 0 13 15
16 33 16 72 99 326 155 471 105 274 292 676 315 676 1 0 1 -149 -2 -332z
m1789 87 c95 -31 240 -66 247 -60 2 3 -1 11 -7 17 -7 7 -12 15 -12 19 0 10 71
-10 89 -25 12 -9 13 -6 9 17 -3 15 -3 27 -1 27 2 0 29 -12 59 -26 51 -24 56
-30 94 -108 22 -45 40 -86 40 -89 0 -4 -13 -7 -29 -7 -20 0 -47 14 -83 44 -63
51 -189 117 -268 140 -30 9 -86 19 -125 22 -70 6 -121 27 -110 44 8 14 11 13
97 -15z m163 -5 c3 -6 -1 -7 -9 -4 -18 7 -21 14 -7 14 6 0 13 -4 16 -10z
m-1388 -350 c-12 -70 -14 -75 -40 -78 -32 -4 -33 2 -8 65 17 44 26 82 48 188
14 72 15 -90 0 -175z m-428 8 c13 -40 37 -103 53 -140 l31 -67 -32 -27 c-18
-15 -42 -45 -53 -68 l-22 -41 -7 45 c-10 63 -11 370 -1 370 5 0 19 -33 31 -72z
m471 -125 c-11 -63 -21 -79 -44 -70 -21 8 -20 29 3 80 10 23 25 67 32 97 l14
55 3 -52 c2 -29 -2 -79 -8 -110z m-72 12 c2 -2 1 -18 -3 -35 -6 -26 -11 -31
-28 -26 -12 3 -28 6 -34 6 -7 0 -13 7 -13 15 0 32 24 56 50 50 14 -4 27 -8 28
-10z m2093 -220 c102 -205 110 -236 112 -450 3 -177 -25 -265 -82 -265 -7 0
-11 25 -11 63 0 121 -47 389 -110 627 -11 41 -24 104 -30 140 -6 36 -13 79
-16 95 l-6 30 27 -30 c14 -16 66 -111 116 -210z m-2276 -149 c-12 -59 -67
-115 -85 -86 -24 37 -3 131 33 148 32 15 60 -19 52 -62z m72 10 c-4 -9 -11
-16 -17 -16 -11 0 -14 33 -3 44 11 10 26 -11 20 -28z m2457 -254 c20 -58 23
-269 6 -332 -9 -33 -15 -40 -28 -35 -9 4 -30 12 -47 18 -16 5 -31 11 -33 12
-2 2 7 31 19 66 23 70 49 218 49 287 0 53 13 47 34 -16z m-2824 -69 c0 -18
-11 -43 -21 -43 -8 0 -39 91 -39 114 0 14 59 -56 60 -71z m2426 -90 c-2 -10
-7 -49 -11 -86 -5 -55 -9 -66 -20 -57 -26 22 -26 58 0 110 25 50 41 66 31 33z
m-42 -168 c14 -30 35 -85 47 -121 l22 -67 23 39 c13 21 24 46 24 55 0 8 7 24
15 35 13 17 14 11 15 -66 0 -133 -13 -158 -50 -97 -11 17 -20 29 -20 25 0 -5
36 -89 47 -109 2 -3 -28 -27 -66 -53 l-70 -48 -30 22 c-58 40 -121 147 -141
236 -13 58 7 128 50 174 22 24 36 30 68 30 38 0 41 -2 66 -55z m-2317 -105
c86 -90 112 -123 134 -176 l28 -66 -40 6 c-78 13 -158 66 -208 140 -30 44 -61
126 -61 161 0 21 17 45 32 45 4 0 56 -50 115 -110z m2714 44 c21 -10 29 -20
25 -31 -13 -33 -18 -63 -10 -63 4 0 22 13 39 30 l31 30 84 -62 c90 -66 196
-165 187 -175 -3 -3 -48 11 -98 32 -91 37 -95 37 -200 33 -105 -4 -108 -4
-118 19 -13 29 -22 28 -95 -2 -33 -13 -62 -22 -64 -20 -3 2 14 25 36 50 22 25
55 75 74 110 36 71 53 79 109 49z m-680 -156 c49 -100 110 -181 162 -219 l39
-28 -25 -23 c-13 -13 -50 -45 -80 -71 l-57 -48 -74 55 c-113 83 -159 154 -158
243 0 57 21 101 65 139 62 54 80 47 128 -48z m-2391 -78 c26 -80 113 -245 179
-343 48 -71 135 -161 199 -206 l32 -23 -45 -51 c-25 -29 -51 -64 -58 -79 -14
-32 -24 -34 -52 -10 -78 66 -179 255 -220 412 -34 133 -76 385 -61 369 2 -2
14 -33 26 -69z m2500 50 c0 -5 -9 -14 -20 -20 -19 -10 -20 -10 -8 9 13 22 28
28 28 11z m34 -64 c14 -24 44 -60 66 -79 33 -28 38 -36 26 -46 -20 -17 -56 0
-98 47 -55 61 -63 80 -42 103 9 10 18 19 20 19 1 0 14 -20 28 -44z m-296 -207
c-14 -19 -25 -26 -32 -19 -6 6 -2 18 14 35 31 33 45 21 18 -16z m-933 -40 c59
-28 81 -57 106 -140 l21 -69 -22 -67 c-48 -145 -150 -323 -185 -323 -23 0
-265 81 -265 89 0 4 12 36 26 72 21 50 28 87 32 172 l5 107 26 0 c18 0 40 -13
66 -40 l39 -40 -12 -48 c-7 -26 -33 -89 -59 -140 -25 -51 -43 -95 -41 -98 6
-5 91 174 121 256 16 41 27 100 32 160 7 95 21 130 52 130 7 0 34 -10 58 -21z
m-255 -129 c12 -8 11 -10 -7 -10 -13 0 -23 5 -23 10 0 13 11 13 30 0z m991
-22 c10 -19 3 -29 -87 -115 -149 -142 -223 -176 -308 -143 -22 8 -26 16 -26
50 0 77 -18 39 -22 -47 -3 -57 -12 -102 -24 -128 -17 -38 -112 -175 -121 -175
-2 0 -48 23 -103 51 -64 33 -97 55 -93 63 4 6 21 31 39 56 52 74 75 119 116
234 21 61 44 116 50 123 22 27 65 15 102 -29 20 -23 36 -46 36 -52 0 -15 145
-3 195 16 61 23 203 96 210 108 10 16 23 12 36 -12z m-883 -8 c6 0 12 -11 12
-25 0 -33 -10 -32 -46 6 l-29 32 25 -6 c14 -4 31 -7 38 -7z m-440 -43 c4 -19
-32 -24 -57 -8 -11 7 -10 11 5 20 25 14 48 10 52 -12z"/>
<path d="M2510 4070 c-9 -6 -10 -10 -3 -10 6 0 15 5 18 10 8 12 4 12 -15 0z"/>
<path d="M2370 3995 c-14 -8 -20 -14 -14 -15 5 0 19 7 30 15 24 18 16 19 -16
0z"/>
<path d="M2515 3279 c-19 -17 -35 -36 -35 -41 0 -6 15 3 33 18 19 16 42 34 53
41 17 10 17 12 2 12 -10 1 -33 -13 -53 -30z"/>
<path d="M2755 3192 c-44 -15 -56 -31 -80 -102 -30 -88 -36 -242 -10 -276 8
-10 15 -33 15 -49 0 -30 72 -168 103 -200 23 -22 122 -55 167 -55 31 0 86 15
169 45 8 3 12 8 9 11 -3 2 -40 -7 -82 -22 -82 -28 -131 -28 -201 2 -42 17 -65
41 -99 104 l-27 49 25 48 c28 55 61 93 81 93 7 0 19 -17 26 -37 6 -21 25 -55
41 -75 39 -50 86 -53 128 -8 36 38 44 77 30 131 -10 38 -10 44 6 56 19 14 82
17 101 5 40 -25 66 -212 39 -276 -13 -32 -14 -37 -1 -26 26 22 36 81 25 161
-12 91 -23 124 -80 230 -55 102 -90 137 -166 168 -60 24 -180 37 -219 23z m-7
-114 c26 -26 8 -118 -23 -118 -33 0 -46 70 -19 108 17 25 25 27 42 10z m97
-49 c0 -7 -8 -15 -17 -17 -18 -3 -25 18 -11 32 10 10 28 1 28 -15z"/>
<path d="M2393 1938 c-44 -48 -63 -92 -63 -146 0 -97 40 -141 110 -122 47 13
54 29 10 22 -69 -10 -100 21 -100 99 0 61 14 79 60 79 27 0 45 7 60 22 29 31
25 43 -6 19 -15 -12 -40 -21 -56 -21 -26 0 -28 2 -18 20 17 33 51 40 108 25
61 -16 107 -47 127 -85 23 -45 19 -67 -20 -92 -35 -23 -44 -38 -24 -38 17 0
68 39 79 61 15 27 -19 99 -61 131 -71 53 -170 65 -206 26z"/>
<path d="M4253 2255 c0 -27 2 -38 4 -22 2 15 2 37 0 50 -2 12 -4 0 -4 -28z"/>
<path d="M2961 1032 c-27 -38 -36 -109 -19 -142 7 -14 30 -33 51 -44 l38 -18
-7 -57 c-9 -65 -9 -53 6 -196 12 -108 8 -413 -6 -482 -4 -20 -2 -33 4 -33 10
0 16 59 28 267 l6 113 28 -38 c15 -20 52 -55 83 -77 31 -22 56 -47 56 -55 1
-28 35 -154 38 -143 2 6 -3 37 -11 69 -8 32 -13 61 -10 66 3 5 20 -1 37 -13
l32 -21 -30 26 c-16 15 -59 48 -95 75 -87 64 -119 117 -132 218 -5 43 -7 114
-4 158 4 52 3 75 -3 65 -24 -36 -16 18 25 165 4 16 3 17 -5 5 -6 -8 -16 -32
-21 -52 -14 -49 -47 -52 -84 -7 -29 34 -32 64 -13 112 23 55 41 63 83 38 40
-24 60 -22 22 3 -48 31 -74 30 -97 -2z"/>
<path d="M1341 793 c-1 -6 -4 -20 -7 -30 -5 -17 -5 -17 6 0 6 10 9 23 6 30 -3
9 -5 9 -5 0z"/>
<path d="M1638 793 c18 -2 45 -2 60 0 15 2 0 4 -33 4 -33 0 -45 -2 -27 -4z"/>
<path d="M1868 773 c6 -2 18 -2 25 0 6 3 1 5 -13 5 -14 0 -19 -2 -12 -5z"/>
<path d="M1428 763 c7 -3 16 -2 19 1 4 3 -2 6 -13 5 -11 0 -14 -3 -6 -6z"/>
<path d="M1928 763 c7 -3 16 -2 19 1 4 3 -2 6 -13 5 -11 0 -14 -3 -6 -6z"/>
<path d="M1968 753 c7 -3 16 -2 19 1 4 3 -2 6 -13 5 -11 0 -14 -3 -6 -6z"/>
<path d="M2008 743 c7 -3 16 -2 19 1 4 3 -2 6 -13 5 -11 0 -14 -3 -6 -6z"/>
<path d="M1319 710 c-76 -50 -189 -172 -189 -204 0 -6 13 10 29 35 33 52 139
152 191 179 19 11 30 19 24 20 -6 0 -31 -13 -55 -30z"/>
<path d="M2140 697 c0 -3 21 -18 48 -33 26 -15 58 -34 72 -42 l25 -14 -25 20
c-28 24 -120 76 -120 69z"/>
<path d="M2290 608 c0 -2 26 -26 58 -53 31 -27 48 -39 37 -26 -21 24 -95 86
-95 79z"/>
<path d="M1105 464 c-9 -14 -14 -28 -12 -31 3 -3 13 9 22 26 19 38 14 41 -10
5z"/>
<path d="M1683 433 c15 -2 37 -2 50 0 12 2 0 4 -28 4 -27 0 -38 -2 -22 -4z"/>
<path d="M1565 420 c-13 -6 -5 -7 25 -3 25 3 47 7 49 9 9 8 -55 2 -74 -6z"/>
<path d="M1793 423 c9 -2 23 -2 30 0 6 3 -1 5 -18 5 -16 0 -22 -2 -12 -5z"/>
<path d="M1848 413 c7 -3 16 -2 19 1 4 3 -2 6 -13 5 -11 0 -14 -3 -6 -6z"/>
<path d="M1450 380 c-8 -5 -10 -10 -5 -10 6 0 17 5 25 10 8 5 11 10 5 10 -5 0
-17 -5 -25 -10z"/>
<path d="M2040 356 c0 -2 7 -7 16 -10 8 -3 12 -2 9 4 -6 10 -25 14 -25 6z"/>
<path d="M2100 327 c0 -2 21 -18 48 -36 35 -25 40 -26 17 -6 -30 26 -65 49
-65 42z"/>
<path d="M2220 239 c0 -4 16 -24 35 -45 19 -22 53 -71 77 -111 23 -40 44 -70
46 -68 7 7 -78 139 -118 185 -22 25 -40 42 -40 39z"/>
<path d="M2058 43 c6 -2 18 -2 25 0 6 3 1 5 -13 5 -14 0 -19 -2 -12 -5z"/>
<path d="M2123 33 c9 -2 23 -2 30 0 6 3 -1 5 -18 5 -16 0 -22 -2 -12 -5z"/>
</g>
</svg>
